<svg version="1.2" xmlns="http://www.w3.org/2000/svg" viewBox="0 0 217 186" width="217" height="186">
	<defs>
		<linearGradient id="g1" x2="1" gradientUnits="userSpaceOnUse" gradientTransform="matrix(210.714,0,0,185.819,0,92.911)">
			<stop offset="0" stop-color="#e86f53"/>
			<stop offset="1" stop-color="#d62c75"/>
		</linearGradient>
		<linearGradient id="g2" x2="1" gradientUnits="userSpaceOnUse" gradientTransform="matrix(61.064,0,0,76.836,93.178,95.624)">
			<stop offset="0" stop-color="#e86f53"/>
			<stop offset="1" stop-color="#d62c75"/>
		</linearGradient>
		<linearGradient id="g3" x2="1" gradientUnits="userSpaceOnUse" gradientTransform="matrix(42.685,0,0,60.292,78.378,107.013)">
			<stop offset="0" stop-color="#e86f53"/>
			<stop offset="1" stop-color="#d62c75"/>
		</linearGradient>
		<linearGradient id="g4" x2="1" gradientUnits="userSpaceOnUse" gradientTransform="matrix(5.722,0,0,16.277,82.979,87.909)">
			<stop offset="0" stop-color="#e86f53"/>
			<stop offset="1" stop-color="#d62c75"/>
		</linearGradient>
		<linearGradient id="g5" x2="1" gradientUnits="userSpaceOnUse" gradientTransform="matrix(3.569,0,0,11.973,86.941,89.545)">
			<stop offset="0" stop-color="#e86f53"/>
			<stop offset="1" stop-color="#d62c75"/>
		</linearGradient>
		<linearGradient id="g6" x2="1" gradientUnits="userSpaceOnUse" gradientTransform="matrix(16.428,0,0,13.274,89.922,86.272)">
			<stop offset="0" stop-color="#e86f53"/>
			<stop offset="1" stop-color="#d62c75"/>
		</linearGradient>
		<linearGradient id="g7" x2="1" gradientUnits="userSpaceOnUse" gradientTransform="matrix(4.84,0,0,4.488,104.059,87.457)">
			<stop offset="0" stop-color="#e86f53"/>
			<stop offset="1" stop-color="#d62c75"/>
		</linearGradient>
	</defs>
	<style>
		.s0 { fill: #243338 } 
		.s1 { fill: #df4f68 } 
		.s2 { fill: url(#g1) } 
		.s3 { fill: url(#g2) } 
		.s4 { fill: url(#g3) } 
		.s5 { fill: url(#g4) } 
		.s6 { fill: url(#g5) } 
		.s7 { fill: url(#g6) } 
		.s8 { fill: url(#g7) } 
	</style>
	<g>
		<path class="s0" d="m269.82 92.49c0-29.11 18.94-46.27 46.66-46.27 21.99 0 38.52 10.55 44.49 29.24l-17.8 0.13q-6.67-13.73-26.7-13.73c-19.96 0-29.87 10.42-29.87 30.64 0 20.22 9.79 30.38 29.87 30.38 12.71 0 20.72-4.2 25.55-12.2v-11.7h-32.93v-15.89l51.23 0.38v53.65h-18.31v-5.98c-5.98 5.09-15.51 7.5-25.55 7.5-27.97 0-46.66-17.29-46.66-46.15z"/>
		<path class="s0" d="m367.84 92.49c0-29.11 18.94-46.27 46.66-46.27 23.26 0 40.43 11.95 45.13 32.93h-17.29c-3.43-10.93-12.84-17.29-27.84-17.29-19.96 0-29.87 10.42-29.87 30.64 0 20.22 9.79 30.38 29.87 30.38 15.13 0 24.28-5.98 27.84-16.91h17.29c-6.1 23.65-24.28 32.67-45.13 32.67-27.97 0-46.66-17.29-46.66-46.15z"/>
		<path class="s0" d="m466.5 92.49c0-29.11 18.94-46.27 46.66-46.27 27.72 0 46.91 17.16 46.91 46.02 0 28.86-18.56 46.4-46.91 46.4-28.35 0-46.66-17.29-46.66-46.15zm76.65 0c0-19.96-10.04-30.64-30-30.64-19.96 0-29.88 10.42-29.88 30.64 0 20.22 9.79 30.38 29.88 30.38 20.09 0 30-10.81 30-30.38z"/>
		<path class="s1" d="m590.24 92.49c0-29.11 18.94-46.27 46.66-46.27 23.26 0 40.43 11.95 45.13 32.93h-17.29c-3.43-10.93-12.84-17.29-27.84-17.29-19.96 0-29.88 10.42-29.88 30.64 0 20.22 9.79 30.38 29.88 30.38 15.13 0 24.28-5.98 27.84-16.91h17.29c-6.1 23.65-24.28 32.67-45.13 32.67-27.97 0-46.66-17.29-46.66-46.15zm97.02 12.33c0-21.23 14.11-33.94 35.47-33.94 21.36 0 35.09 12.71 35.09 33.69 0 20.98-13.86 33.94-35.47 33.94-21.61 0-35.09-12.84-35.09-33.69zm55.04-0.26c0-11.7-7.12-19.32-19.83-19.32-12.71 0-19.7 7.5-19.7 19.45 0 11.95 6.87 19.32 19.7 19.32 12.83 0 19.83-7.5 19.83-19.45zm22.96-32.67h15.38v7.88c4.2-5.47 12.97-8.64 20.72-8.9 17.16-0.76 26.19 8.9 26.19 24.54v41.7h-15.51v-38.14c0-8.77-2.67-13.48-12.2-13.48-7.75 0-19.2 3.69-19.2 13.22v38.39h-15.38c0 0 0-65.22 0-65.21zm69.51 0h15.38v7.88c4.2-5.47 12.97-8.64 20.72-8.9 17.16-0.76 26.19 8.9 26.19 24.54v41.7h-15.51v-38.14c0-8.77-2.67-13.48-12.2-13.48-7.75 0-19.2 3.69-19.2 13.22v38.39h-15.38c0 0 0-65.22 0-65.21zm69.13 33.05c0-21.48 13.86-34.07 35.59-34.07 21.73 0 34.83 12.46 34.83 33.82v3.56h-54.66c0.76 8.64 7.12 15.76 19.45 15.76 8.9 0 14.62-3.56 17.16-9.92h17.03c-3.81 14.87-15.26 24.28-34.2 24.41-21.48 0.13-35.21-12.33-35.2-33.56zm35.21-19.7c-7.25 0-15.51 3.3-18.43 12.97h36.99c-1.78-7.37-7.25-12.97-18.56-12.97zm41.8 19.7c0-21.48 13.98-34.07 35.85-34.07 19.32 0 32.42 10.93 34.2 28.48h-15.51c-1.91-8.39-8.01-14.11-19.07-14.11-10.17 0-19.96 5.34-19.96 19.58 0 8.9 4.32 19.2 19.96 19.2 11.82 0 17.8-6.86 19.07-14.11h15.76c-2.54 17.8-15.38 28.6-34.83 28.6-22.37 0-35.47-12.33-35.47-33.56zm85.02 10.94v-28.22h-10.3v-14.11h10.3v-22.37h15.38v22.37h19.83v14.11h-19.83v29.11c0 9.53 10.93 7.25 18.69 5.59l3.81 12.59c-7.75 2.54-11.7 3.3-16.65 3.3-15.89 0-20.72-9.41-21.23-22.37z"/>
	</g>
	<g id="New_Symbol">
		<g>
			<path class="s2" d="m158.62 113.03l24.15-0.27h0.65c-1.9 4.94-2.13 6.66-9.85 18.97-2.65 4.24-5.29 8.49-15.3 15.28-11.14 7.56-25.88 11.77-43.99 9.91-38.46-3.96-58.21-24.98-58.21-63.95 0-38.97 24.66-64.35 63.63-64.35 26.06 0 55.29 15.42 58.94 45.65l32.07-0.32c-8.11-53.78-53.18-73.95-96.13-73.95-12.72 0-25.23 2.58-35.8 6.15q0 0-0.01 0-0.28 0.1-0.51 0.18c-3.84 1.33-8 3.36-11.51 5.13-16.25 6.94-33.06 23.19-39.8 42.75-0.93 2.69-1.53 5.49-1.82 8.33l-0.29 2.85c-0.34 2.3-0.78 4.12-1.53 8.3-1 5.5-2.48 8.69-3.03 9.79-2.2 4.46-4.52 6.79-10.87 11.37-5.82 4.18-6.08 4.13-8.76 5.98-1.96 1.36 0.93 5.25 2.92 6.79 2.45 1.9 4.7 0.79 6.81 3.03 0.32 0.34 2.29 2.18 1.7 4.15-1.82 6.12-3.31 5.33-5.17 6.85-0.22 0.18-3.67 2.19-2.64 5.29 0.23 0.69 2.78 1.28 4.03 1.62 1.82 0.49 3.2 0.98 1.88 1.98-2.48 1.87-4.89 0.96-5.19 2.68-0.17 0.93 0.52 3.02 2.59 4.72 1.35 1.11 2.98 3.46 3.28 6.68 0.23 2.4-1.09 2.98-1.46 5.66-0.33 2.43 0.53 4.96 1.71 6.56 4.02 5.45 14.46 3.36 18.72 3.16 3.28-0.15 5.56-0.03 8.32-0.24 8.29-0.62 10.73 2.32 13.37 4.34q0.82 0.68 1.66 1.34 0.02 0.02 0.04 0.03 0.06 0.05 0.12 0.09c15.43 12.07 32.63 19.23 61.24 20.12 7.89 0.25 15.82 0.32 23.62-1.16 24.82-4.68 47.62-19.14 60.41-41.2 8.73-15.05 11.65-31.29 12.02-48.49 0-0.16-0.24-1.24 0.08-1.24l-45.39-0.59c0 0-6.7 20.03-6.7 20.03z"/>
			<g>
				<path class="s3" d="m138.45 72.84c8.8 1.3 15.03 8.16 15.71 17.02 1.4 18.05-16.24 34.8-30.46 43.22-0.57 0.34-1.18 0.73-1.8 0.96 6.5-5.1 11.98-11.48 16.28-18.54 4.18-6.85 9.27-17.93 7-26.03-3.28-11.72-20.75-7.34-28.34-2.8l-2.54 1.57c-0.1-0.56-0.48-1.15-0.79-1.65-3.31-5.43-9.77-9.61-15.55-12.03l-4.78-1.82c7.29 0.05 14.72 1.42 21.17 4.88 4.05-1.9 8.25-3.51 12.65-4.42 0.08-0.08 0.16-0.07 0.05-0.15-3.85-3.03-4.5-8.56-1.5-12.44 4.09-5.3 12.49-4.21 15.17 1.89 1.61 3.65 0.59 7.68-2.27 10.34z"/>
				<path class="s4" d="m102.65 106.04l-1.54-2.36c-1.25-2.26-2.16-4.6-1.88-7.25 0.11-1.11 0.97-3.13 2.23-3.29 1.37-0.17 1.24 1.68 1.43 2.52 1.1 4.87 8.98 10.95 12.56 14.39 5.47 5.24 6.82 11.6 4.58 18.84-0.9 2.91-2.39 5.9-4.27 8.27-0.48-5.71-3.47-9.56-7.59-13.17-3.13-2.73-6.55-5.17-9.73-7.86-9.61-8.1-23.32-20.92-19.36-34.96 0.19-0.69 1.26-3.78 1.72-4.11 0.45-0.33 1.41-0.25 1.59 0.38 0.11 0.38-0.41 2.48-0.46 3.15-0.76 12.28 10.8 20.81 20.72 25.45z"/>
				<path class="s5" d="m88.7 96.05c-1.4-1.62-2.73-3.55-3.76-5.45-0.51-0.92-1.89-3.67-1.96-4.6-0.06-0.82 0.72-2.89 1.13-3.65 0.4-0.77 2.37-3.71 3.28-2.11 0.33 0.57-0.41 1.8-0.61 2.49-1.3 4.47 0.26 9.17 1.92 13.32z"/>
				<path class="s6" d="m89.33 95.53c-0.19-0.12-0.31-0.5-0.39-0.7-0.96-2.3-2.08-6.16-1.99-8.62 0.02-0.61 2.08-2.69 2.73-2.65 0.2 0.01 0.6 0.3 0.69 0.46 0.38 0.66-0.12 1.04-0.33 1.55-1.42 3.34-1.36 6.43-0.71 9.96z"/>
				<g>
					<path class="s7" d="m94.58 87.1l1.61-3.57c0.42-0.38 0.61 0.01 0.71 0.42 0.31 1.31 0.34 2.94 0.55 4.29 0.49-0.39 1.26-2.74 1.82-2.81 0.12-0.01 0.24-0.01 0.31 0.1l0.98 5.31 3.41-11.14c0.18-0.1 0.42-0.1 0.56 0.08 0.17 0.57 1.88 3.58 1.82 3.89-0.06 0.3-0.4 0.43-0.63 0.2l-1.51-2.91-3.64 11.92c-0.17 0.09-0.44-0.07-0.5-0.23l-0.96-5.76-1.51 2.7c-0.19 0.32-0.53 0.27-0.65-0.07-0.36-1-0.25-2.83-0.55-3.93l-0.15-0.36c-0.12-0.06-0.92 2.22-1.09 2.42q-0.07 0.11-0.2 0.13c-1.45-0.03-3.22 0.21-4.63 0.04-0.68-0.08-0.32-0.72-0.22-0.72h4.48z"/>
					<path class="s8" d="m105.01 85.25c0.89-0.18 1.36 0.6 1.44 0.6 0.04 0 0.53-0.5 0.77-0.57 0.99-0.3 1.71 0.51 1.68 1.45-0.04 1.02-1.85 2.18-2.45 2.97-0.7-0.89-2.39-1.85-2.39-3.07 0-0.57 0.36-1.26 0.95-1.38z"/>
				</g>
			</g>
		</g>
	</g>
</svg>