<?xml version="1.0" encoding="UTF-8"?>
<svg version="1.1" xmlns="http://www.w3.org/2000/svg" width="100" height="89">
<path d="M0 0 C4.0619557 -0.17456339 8.12294587 -0.2809442 12.1875 -0.375 C13.33798828 -0.42527344 14.48847656 -0.47554688 15.67382812 -0.52734375 C24.14151465 -0.67460786 24.14151465 -0.67460786 27.86328125 2.25 C28.8996582 3.90478516 28.8996582 3.90478516 30 6 C30.5261792 6.89380371 31.0523584 7.78760742 31.59448242 8.70849609 C33.45035587 11.90315333 35.2308598 15.1315763 37 18.375 C38.20644594 20.5713503 39.4147413 22.76668585 40.625 24.9609375 C41.19605469 26.00604492 41.76710937 27.05115234 42.35546875 28.12792969 C43.77401498 30.60533139 45.29760978 32.89491577 46.9375 35.2265625 C49.57866974 39.43335715 50.01577001 43.1507843 49 48 C47.69637187 51.22672052 45.9981272 54.07420628 44.125 57 C43.66480469 57.76183594 43.20460937 58.52367187 42.73046875 59.30859375 C39.33270994 64.83364503 39.33270994 64.83364503 37 66 C34.66503906 64.90771484 34.66503906 64.90771484 31.765625 63.2109375 C30.71632813 62.59863281 29.66703125 61.98632812 28.5859375 61.35546875 C27.48507813 60.70191406 26.38421875 60.04835937 25.25 59.375 C24.16460937 58.74464844 23.07921875 58.11429688 21.9609375 57.46484375 C7.82465712 49.15243438 7.82465712 49.15243438 3.6875 41.9375 C3.19636719 41.10089844 2.70523438 40.26429687 2.19921875 39.40234375 C-0.11054135 34.7752999 -0.13521911 30.49374982 -0.09765625 25.390625 C-0.0962413 24.66381531 -0.09482635 23.93700562 -0.09336853 23.18817139 C-0.08778792 20.87540506 -0.07523904 18.56273688 -0.0625 16.25 C-0.05748249 14.67838682 -0.05292002 13.10677211 -0.04882812 11.53515625 C-0.03782485 7.69006657 -0.02057361 3.8450499 0 0 Z " fill="#EF7446" transform="translate(51,0)"/>
<path d="M0 0 C1.11826172 0.00966797 2.23652344 0.01933594 3.38867188 0.02929688 C5.13954102 0.06700195 5.13954102 0.06700195 6.92578125 0.10546875 C8.10462891 0.11900391 9.28347656 0.13253906 10.49804688 0.14648438 C13.41191536 0.18187549 16.3248707 0.23125066 19.23828125 0.29296875 C19.33815379 4.8095125 19.41021555 9.32544864 19.45800781 13.84277344 C19.47795849 15.37511409 19.50512941 16.90738027 19.54003906 18.43945312 C19.77725215 29.12799593 19.61028615 39.54357007 11.875 47.8828125 C8.01596642 51.20766005 3.60968242 53.70827116 -0.76171875 56.29296875 C-1.83462158 56.92984619 -1.83462158 56.92984619 -2.92919922 57.57958984 C-7.86111682 60.50523356 -12.80701016 63.4061104 -17.76171875 66.29296875 C-20.91491039 63.28426298 -23.15849211 59.85066803 -25.44921875 56.16796875 C-25.86494141 55.54148438 -26.28066406 54.915 -26.70898438 54.26953125 C-29.77091841 49.32216986 -31.07012462 45.06666005 -29.76171875 39.29296875 C-27.93025524 35.12503854 -25.61379763 31.33352016 -23.19921875 27.48046875 C-22.59013672 26.47693359 -21.98105469 25.47339844 -21.35351562 24.43945312 C-20.12388065 22.41348312 -18.88607846 20.39244744 -17.64013672 18.37646484 C-15.11325523 14.22849068 -12.71458082 10.0104378 -10.32446289 5.7824707 C-7.27954762 0.93182221 -5.84496368 -0.0890096 0 0 Z " fill="#FACE4F" transform="translate(29.76171875,-0.29296875)"/>
<path d="M0 0 C2.87752309 1.6944437 5.73621188 3.4186553 8.58666992 5.15820312 C10.50111412 6.27382899 12.4510808 7.26959042 14.44262695 8.23974609 C13.81322997 11.2817607 12.80540938 13.60917474 11.2277832 16.27880859 C10.78885742 17.02388672 10.34993164 17.76896484 9.89770508 18.53662109 C9.20837891 19.68904297 9.20837891 19.68904297 8.50512695 20.86474609 C8.04944336 21.64076172 7.59375977 22.41677734 7.12426758 23.21630859 C3.71393226 28.96844079 3.71393226 28.96844079 1.44262695 31.23974609 C-0.66915894 31.51390076 -0.66915894 31.51390076 -3.31079102 31.54614258 C-4.29876678 31.56212997 -5.28674255 31.57811737 -6.30465698 31.59458923 C-7.37547516 31.59995193 -8.44629333 31.60531464 -9.54956055 31.61083984 C-11.19578903 31.62438255 -11.19578903 31.62438255 -12.87527466 31.63819885 C-15.20043194 31.65272708 -17.52563034 31.66159445 -19.85083008 31.6652832 C-23.41126341 31.67717558 -26.96996226 31.72633534 -30.5300293 31.77685547 C-32.78653123 31.78631957 -35.04304384 31.79355466 -37.29956055 31.79833984 C-38.89971512 31.82763832 -38.89971512 31.82763832 -40.53219604 31.85752869 C-47.92262481 31.81235327 -47.92262481 31.81235327 -51.11352539 28.93383789 C-51.58999512 28.0447876 -52.06646484 27.1557373 -52.55737305 26.23974609 C-52.97986328 25.61374512 -53.40235352 24.98774414 -53.83764648 24.34277344 C-55.0011519 22.4374675 -56.15932141 20.52941202 -57.30737305 18.61474609 C-57.71858398 17.94701172 -58.12979492 17.27927734 -58.5534668 16.59130859 C-61.55737305 11.6014311 -61.55737305 11.6014311 -61.55737305 8.23974609 C-60.60991211 7.72927734 -60.60991211 7.72927734 -59.64331055 7.20849609 C-55.37455439 4.89574059 -51.11465213 2.57659135 -46.9206543 0.13037109 C-46.3097998 -0.22476563 -45.69894531 -0.57990234 -45.06958008 -0.94580078 C-43.31692018 -1.96822481 -41.56792316 -2.99691998 -39.8190918 -4.02587891 C-25.55510734 -11.61056046 -13.00713637 -7.55751156 0 0 Z " fill="#218B4A" transform="translate(73.557373046875,57.76025390625)"/>
<path d="M0 0 C0 0.66 0 1.32 0 2 C1.32 1.67 2.64 1.34 4 1 C4 1.66 4 2.32 4 3 C4.66 3 5.32 3 6 3 C6 3.99 6 4.98 6 6 C5.01 6 4.02 6 3 6 C5 6 7 6 9 6 C9 6.99 9 7.98 9 9 C8.34 9 7.68 9 7 9 C7.33 9.66 7.66 10.32 8 11 C10.17517521 10.19269273 10.17517521 10.19269273 10.75 8.0625 C10.8325 7.381875 10.915 6.70125 11 6 C10.34 5.34 9.68 4.68 9 4 C9.375 1.875 9.375 1.875 10 0 C16.625 -0.125 16.625 -0.125 20 1 C20 7.6 20 14.2 20 21 C9.7168002 21.75242925 0.26139299 22.06152341 -10 21 C-10 14.4 -10 7.8 -10 1 C-6.52674819 -0.1577506 -3.63932552 -0.06866652 0 0 Z " fill="#2C8B52" transform="translate(45,62)"/>
<path d="M0 0 C0.99 0.66 1.98 1.32 3 2 C3 2.66 3 3.32 3 4 C3.66 4 4.32 4 5 4 C5.33 5.65 5.66 7.3 6 9 C6.66 9 7.32 9 8 9 C7.690625 9.8971875 7.690625 9.8971875 7.375 10.8125 C6.69328085 13.28450846 6.69328085 13.28450846 9 16 C7.75 18 7.75 18 6 20 C4.68 20 3.36 20 2 20 C1.67 20.99 1.34 21.98 1 23 C0.01 23.33 -0.98 23.66 -2 24 C-2 24.66 -2 25.32 -2 26 C-2.99 26 -3.98 26 -5 26 C-5.19335938 26.62648438 -5.38671875 27.25296875 -5.5859375 27.8984375 C-5.84632812 28.71570313 -6.10671875 29.53296875 -6.375 30.375 C-6.63023438 31.18710937 -6.88546875 31.99921875 -7.1484375 32.8359375 C-8 35 -8 35 -10 37 C-15.33333333 37.33333333 -15.33333333 37.33333333 -18 36 C-18.9375 33.8125 -18.9375 33.8125 -19 31 C-17.4045651 28.94272868 -15.73473712 26.94125344 -14 25 C-13.14720662 22.78264561 -13.14720662 22.78264561 -13 21 C-13.99 20.67 -14.98 20.34 -16 20 C-16.63196126 11.78450363 -16.63196126 11.78450363 -14.1875 8.75 C-13.465625 8.1725 -12.74375 7.595 -12 7 C-11.484375 6.13375 -10.96875 5.2675 -10.4375 4.375 C-7.71814159 -0.11785303 -4.92888991 -0.41074083 0 0 Z " fill="#FCDB78" transform="translate(34,11)"/>
<path d="M0 0 C0 0.66 0 1.32 0 2 C-2.97 1.505 -2.97 1.505 -6 1 C-6 6.28 -6 11.56 -6 17 C-3.03 17.33 -0.06 17.66 3 18 C3.66 16.68 4.32 15.36 5 14 C5 15.65 5 17.3 5 19 C5.515625 18.67 6.03125 18.34 6.5625 18 C9 17 9 17 16 17 C16 11.72 16 6.44 16 1 C14.02 1.33 12.04 1.66 10 2 C10 1.34 10 0.68 10 0 C16.625 -0.125 16.625 -0.125 20 1 C20 7.6 20 14.2 20 21 C9.7168002 21.75242925 0.26139299 22.06152341 -10 21 C-10 14.4 -10 7.8 -10 1 C-6.52674819 -0.1577506 -3.63932552 -0.06866652 0 0 Z " fill="#DFEFE5" transform="translate(45,62)"/>
<path d="M0 0 C0.99 0.66 1.98 1.32 3 2 C1.46688715 7.51568187 -1.18752444 12.02034852 -4.125 16.875 C-4.59292969 17.65875 -5.06085937 18.4425 -5.54296875 19.25 C-6.69018108 21.16982472 -7.8426007 23.08630561 -9 25 C-10.32 24.67 -11.64 24.34 -13 24 C-12.67 22.68 -12.34 21.36 -12 20 C-12.99 19.67 -13.98 19.34 -15 19 C-15.63196126 10.78450363 -15.63196126 10.78450363 -13.1875 7.75 C-12.1046875 6.88375 -12.1046875 6.88375 -11 6 C-9.99431758 4.33675599 -8.99335201 2.67063747 -8 1 C-5.22899606 -0.38550197 -3.0665294 -0.1877467 0 0 Z " fill="#FEFDF7" transform="translate(33,12)"/>
<path d="M0 0 C0.66 0.33 1.32 0.66 2 1 C1.34 1.66 0.68 2.32 0 3 C0.07566046 7.08566477 0.32321343 9.26349697 3.125 12.3125 C9.28330719 15.92715857 15.1080563 16.74053161 22 15 C24.35953094 12.64046906 24.49141413 11.22104383 25 8 C27.71598773 10.71598773 27 12.24650471 27 16 C27.62360702 17.68325177 28.28446914 19.35372001 29 21 C26.92562542 22.36992656 24.84238538 23.72059546 22.75 25.0625 C22.16347656 25.45244141 21.57695313 25.84238281 20.97265625 26.24414062 C18.57509262 27.76618944 16.6631649 28.96959032 13.78515625 29.1015625 C11.04804548 27.41257948 10.14729408 25.14498827 8.6875 22.3125 C6.52215608 18.35595365 4.74066916 15.40482015 1.125 12.6875 C-1.76096898 10.49052362 -1.97504525 10.08179613 -3.125 6.3125 C-3 3 -3 3 -1.5625 1.0625 C-1.046875 0.711875 -0.53125 0.36125 0 0 Z " fill="#FDECE5" transform="translate(60,19)"/>
<path d="M0 0 C0 5.28 0 10.56 0 16 C-3.63 16.66 -7.26 17.32 -11 18 C-10.75 14.625 -10.75 14.625 -10 11 C-8 9.8125 -8 9.8125 -6 9 C-5.01382865 7.05714832 -5.01382865 7.05714832 -5 5 C-5.66 4.34 -6.32 3.68 -7 3 C-4.49955934 -0.00052879 -4.2621484 0 0 0 Z " fill="#3D9B62" transform="translate(61,63)"/>
<path d="M0 0 C1.65 0.33 3.3 0.66 5 1 C6.125 5.75 6.125 5.75 5 8 C4.34 8 3.68 8 3 8 C2.67 9.65 2.34 11.3 2 13 C0.02 13 -1.96 13 -4 13 C-4 12.34 -4 11.68 -4 11 C-4.66 11 -5.32 11 -6 11 C-6 8.69 -6 6.38 -6 4 C-5.01 4 -4.02 4 -3 4 C-1.29467677 2.05990478 -1.29467677 2.05990478 0 0 Z " fill="#F8B59B" transform="translate(71,17)"/>
<path d="M0 0 C-1.3984791 3.4087928 -2.85006933 4.87393835 -6 6.75 C-7.051875 7.39195313 -7.051875 7.39195313 -8.125 8.046875 C-10 9 -10 9 -12 9 C-16 2.25 -16 2.25 -16 0 C-14.08416353 -0.1958009 -12.16727461 -0.38132214 -10.25 -0.5625 C-8.64898437 -0.71912109 -8.64898437 -0.71912109 -7.015625 -0.87890625 C-4.35858796 -0.98560074 -2.50039428 -0.81930395 0 0 Z " fill="#ED6D3F" transform="translate(86,37)"/>
<path d="M0 0 C2.9719385 1.12451727 5.33440687 2.22293791 8 4 C6.125 9.875 6.125 9.875 5 11 C-0.52941176 11.23529412 -0.52941176 11.23529412 -3 10 C-3.875 7.75 -3.875 7.75 -4 5 C-2.0625 2.1875 -2.0625 2.1875 0 0 Z " fill="#FEF2D1" transform="translate(19,37)"/>
<path d="M0 0 C1.1919204 3.57576119 0.74829813 4.29182952 -0.75 7.625 C-1.09546875 8.42164063 -1.4409375 9.21828125 -1.796875 10.0390625 C-3 12 -3 12 -6 13 C-6 13.66 -6 14.32 -6 15 C-6.99 15 -7.98 15 -9 15 C-9.33 15.99 -9.66 16.98 -10 18 C-12.9375 17.625 -12.9375 17.625 -16 17 C-16.33 16.34 -16.66 15.68 -17 15 C-16.01 14.67 -15.02 14.34 -14 14 C-13.67 13.34 -13.34 12.68 -13 12 C-12.34 12.33 -11.68 12.66 -11 13 C-9.84935451 11.27403177 -8.70169026 9.54605039 -7.5625 7.8125 C-6.7890625 6.9153125 -6.7890625 6.9153125 -6 6 C-5.01 6 -4.02 6 -3 6 C-2.690625 5.195625 -2.38125 4.39125 -2.0625 3.5625 C-1 1 -1 1 0 0 Z " fill="#FBD159" transform="translate(38,22)"/>
<path d="M0 0 C0 0.66 0 1.32 0 2 C0.66 2 1.32 2 2 2 C2 2.99 2 3.98 2 5 C1.01 5 0.02 5 -1 5 C1 5 3 5 5 5 C5 5.99 5 6.98 5 8 C4.34 8 3.68 8 3 8 C2.67 8.99 2.34 9.98 2 11 C1.01 10.67 0.02 10.34 -1 10 C-1 9.34 -1 8.68 -1 8 C-1.99 8.495 -1.99 8.495 -3 9 C-2.01 10.485 -2.01 10.485 -1 12 C-3.64 11.67 -6.28 11.34 -9 11 C-9 9.68 -9 8.36 -9 7 C-7.35 7 -5.7 7 -4 7 C-4.3403125 6.1028125 -4.3403125 6.1028125 -4.6875 5.1875 C-4.790625 4.465625 -4.89375 3.74375 -5 3 C-3.38441968 0.84589291 -2.74502455 0 0 0 Z " fill="#8FC4A4" transform="translate(49,63)"/>
<path d="M0 0 C0.66 0 1.32 0 2 0 C2.33 1.65 2.66 3.3 3 5 C3.66 5 4.32 5 5 5 C4.79375 5.598125 4.5875 6.19625 4.375 6.8125 C3.69328085 9.28450846 3.69328085 9.28450846 6 12 C4.75 14 4.75 14 3 16 C1.68 16 0.36 16 -1 16 C-0.34 13.36 0.32 10.72 1 8 C0.01 8.99 -0.98 9.98 -2 11 C-2.33 9.35 -2.66 7.7 -3 6 C-2.01 6.495 -2.01 6.495 -1 7 C-0.67 4.69 -0.34 2.38 0 0 Z " fill="#FEEAA8" transform="translate(37,15)"/>
<path d="M0 0 C0.66 0 1.32 0 2 0 C2 5.94 2 11.88 2 18 C-1.3 18 -4.6 18 -8 18 C-7.34 17.34 -6.68 16.68 -6 16 C-4.02 16 -2.04 16 0 16 C0 10.72 0 5.44 0 0 Z " fill="#489867" transform="translate(62,64)"/>
<path d="M0 0 C0.66 0 1.32 0 2 0 C2 5.28 2 10.56 2 16 C3.98 16 5.96 16 8 16 C8.66 16.66 9.32 17.32 10 18 C6.7 18 3.4 18 0 18 C0 12.06 0 6.12 0 0 Z " fill="#549E71" transform="translate(36,64)"/>
<path d="M0 0 C2.71598773 2.71598773 2 4.24650471 2 8 C2.91257306 10.78566059 2.91257306 10.78566059 4 13 C1.03 14.65 -1.94 16.3 -5 18 C-5 17.01 -5 16.02 -5 15 C-3.35178756 13.96986723 -1.68496298 12.96885372 0 12 C0.22609337 9.87635519 0.22609337 9.87635519 -1.5 8.375 C-2.2425 7.694375 -2.2425 7.694375 -3 7 C-2.34 6.34 -1.68 5.68 -1 5 C-0.35232207 2.42938689 -0.35232207 2.42938689 0 0 Z " fill="#FBE1D9" transform="translate(85,27)"/>
<path d="M0 0 C0 0.33 0 0.66 0 1 C-1.65 1.33 -3.3 1.66 -5 2 C-2.525 3.98 -2.525 3.98 0 6 C-1.65 6 -3.3 6 -5 6 C-4.67 6.99 -4.34 7.98 -4 9 C-5.65 9.33 -7.3 9.66 -9 10 C-8.67 9.01 -8.34 8.02 -8 7 C-7.34 7 -6.68 7 -6 7 C-6 6.01 -6 5.02 -6 4 C-7.65 4.66 -9.3 5.32 -11 6 C-11.66 4.68 -12.32 3.36 -13 2 C-11.02 2.99 -11.02 2.99 -9 4 C-9 3.01 -9 2.02 -9 1 C-5.8035914 -0.06546953 -3.34252724 -0.07427838 0 0 Z " fill="#178C44" transform="translate(60,64)"/>
<path d="M0 0 C1.65 0.33 3.3 0.66 5 1 C5 2.32 5 3.64 5 5 C4.01 5.495 4.01 5.495 3 6 C2.34444881 8.52733235 2.34444881 8.52733235 2 11 C1.01 11 0.02 11 -1 11 C-1.33 10.01 -1.66 9.02 -2 8 C-1.67 7.67 -1.34 7.34 -1 7 C-0.63239269 4.67182036 -0.29758419 2.3381615 0 0 Z " fill="#F7B196" transform="translate(71,19)"/>
<path d="M0 0 C1.32 0.33 2.64 0.66 4 1 C4 2.65 4 4.3 4 6 C3.15115234 6.16435547 3.15115234 6.16435547 2.28515625 6.33203125 C1.55167969 6.49058594 0.81820312 6.64914063 0.0625 6.8125 C-0.66839844 6.96332031 -1.39929687 7.11414063 -2.15234375 7.26953125 C-3.06693359 7.63111328 -3.06693359 7.63111328 -4 8 C-4.33 8.99 -4.66 9.98 -5 11 C-4.75 7.625 -4.75 7.625 -4 4 C-1.9375 2.5625 -1.9375 2.5625 0 2 C0 1.34 0 0.68 0 0 Z " fill="#63A67E" transform="translate(55,70)"/>
<path d="M0 0 C1.625 1.375 1.625 1.375 3 3 C3 3.66 3 4.32 3 5 C2.34 5 1.68 5 1 5 C1 6.65 1 8.3 1 10 C-0.98 9.34 -2.96 8.68 -5 8 C-5 7.34 -5 6.68 -5 6 C-3.35 5.67 -1.7 5.34 0 5 C-0.66 4.67 -1.32 4.34 -2 4 C-1.67 3.67 -1.34 3.34 -1 3 C-1.99 2.34 -2.98 1.68 -4 1 C-2 0 -2 0 0 0 Z " fill="#12773B" transform="translate(48,71)"/>
<path d="M0 0 C2.31 0.33 4.62 0.66 7 1 C6.34 2.65 5.68 4.3 5 6 C3.35 5.67 1.7 5.34 0 5 C0 3.35 0 1.7 0 0 Z " fill="#339F5C" transform="translate(39,63)"/>
<path d="M0 0 C2.9719385 1.12451727 5.33440687 2.22293791 8 4 C7.67 4.99 7.34 5.98 7 7 C3.62496331 5.8141763 1.35277269 4.72426311 -1 2 C-0.67 1.34 -0.34 0.68 0 0 Z " fill="#FEF6E1" transform="translate(19,37)"/>
<path d="M0 0 C2.375 -0.1875 2.375 -0.1875 5 0 C7 3 7 3 6.625 5.1875 C6.41875 5.785625 6.2125 6.38375 6 7 C5.01 7 4.02 7 3 7 C3 6.01 3 5.02 3 4 C2.34 4 1.68 4 1 4 C0.67 2.68 0.34 1.36 0 0 Z " fill="#6BC18C" transform="translate(48,58)"/>
<path d="M0 0 C5.625 -0.25 5.625 -0.25 9 2 C9.875 5.4375 9.875 5.4375 10 9 C9.01 9.99 8.02 10.98 7 12 C7 9.03 7 6.06 7 3 C4.69 2.34 2.38 1.68 0 1 C0 0.67 0 0.34 0 0 Z " fill="#FEE283" transform="translate(28,11)"/>
<path d="M0 0 C0.33 0 0.66 0 1 0 C1 1.65 1 3.3 1 5 C2.98 4.34 4.96 3.68 7 3 C7 3.66 7 4.32 7 5 C5.68 5.33 4.36 5.66 3 6 C3 6.66 3 7.32 3 8 C1.68 8 0.36 8 -1 8 C-0.67 5.36 -0.34 2.72 0 0 Z " fill="#C4DBCD" transform="translate(49,76)"/>
<path d="M0 0 C0 0.66 0 1.32 0 2 C-4.455 3.485 -4.455 3.485 -9 5 C-9 4.01 -9 3.02 -9 2 C-5.86501708 0.14223235 -3.62528568 -0.20140476 0 0 Z " fill="#0C7035" transform="translate(60,76)"/>
<path d="M0 0 C1.32 0.33 2.64 0.66 4 1 C3.67 1.99 3.34 2.98 3 4 C2.01 4.33 1.02 4.66 0 5 C0 5.66 0 6.32 0 7 C-0.99 7 -1.98 7 -3 7 C-2.67 5.68 -2.34 4.36 -2 3 C-1.34 3 -0.68 3 0 3 C0 2.01 0 1.02 0 0 Z " fill="#FEE9AD" transform="translate(32,30)"/>
<path d="M0 0 C0.66 0 1.32 0 2 0 C2 0.66 2 1.32 2 2 C2.66 2 3.32 2 4 2 C4 2.99 4 3.98 4 5 C3.401875 4.814375 2.80375 4.62875 2.1875 4.4375 C-0.16408762 3.77906313 -0.16408762 3.77906313 -3 5 C-1.125 1.125 -1.125 1.125 0 0 Z " fill="#99D0AE" transform="translate(47,63)"/>
<path d="M0 0 C1.32 0.33 2.64 0.66 4 1 C4 1.99 4 2.98 4 4 C1.69 4.33 -0.62 4.66 -3 5 C-2.505 4.54625 -2.01 4.0925 -1.5 3.625 C0.22609337 2.12364481 0.22609337 2.12364481 0 0 Z " fill="#73B48E" transform="translate(55,70)"/>
<path d="M0 0 C2.475 0.495 2.475 0.495 5 1 C4.67 1.99 4.34 2.98 4 4 C2.68 4 1.36 4 0 4 C0 2.68 0 1.36 0 0 Z " fill="#EE6D3B" transform="translate(71,19)"/>
<path d="M0 0 C2.4375 0.375 2.4375 0.375 5 1 C5.33 1.66 5.66 2.32 6 3 C3.69 3.33 1.38 3.66 -1 4 C-0.67 2.68 -0.34 1.36 0 0 Z " fill="#FDE9B4" transform="translate(16,40)"/>
</svg>
