<?xml version="1.0" encoding="UTF-8"?>
<svg xmlns="http://www.w3.org/2000/svg" xmlns:xlink="http://www.w3.org/1999/xlink" width="58px" height="50px" viewBox="0 0 58 50" version="1.1">
<defs>
<linearGradient id="linear0" gradientUnits="userSpaceOnUse" x1="0" y1="0" x2="1" y2="0" gradientTransform="matrix(56.319872,0,0,49.951344,0,24.976076)">
<stop offset="0" style="stop-color:rgb(90.980392%,43.529412%,32.54902%);stop-opacity:1;"/>
<stop offset="1" style="stop-color:rgb(83.921569%,17.254902%,45.882353%);stop-opacity:1;"/>
</linearGradient>
<linearGradient id="linear1" gradientUnits="userSpaceOnUse" x1="0" y1="0" x2="1" y2="0" gradientTransform="matrix(16.321253,0,0,20.654838,24.904719,25.705376)">
<stop offset="0" style="stop-color:rgb(90.980392%,43.529412%,32.54902%);stop-opacity:1;"/>
<stop offset="1" style="stop-color:rgb(83.921569%,17.254902%,45.882353%);stop-opacity:1;"/>
</linearGradient>
<linearGradient id="linear2" gradientUnits="userSpaceOnUse" x1="0" y1="0" x2="1" y2="0" gradientTransform="matrix(11.408894,0,0,16.207527,20.948958,28.766936)">
<stop offset="0" style="stop-color:rgb(90.980392%,43.529412%,32.54902%);stop-opacity:1;"/>
<stop offset="1" style="stop-color:rgb(83.921569%,17.254902%,45.882353%);stop-opacity:1;"/>
</linearGradient>
<linearGradient id="linear3" gradientUnits="userSpaceOnUse" x1="0" y1="0" x2="1" y2="0" gradientTransform="matrix(1.529383,0,0,4.375538,22.178718,23.631451)">
<stop offset="0" style="stop-color:rgb(90.980392%,43.529412%,32.54902%);stop-opacity:1;"/>
<stop offset="1" style="stop-color:rgb(83.921569%,17.254902%,45.882353%);stop-opacity:1;"/>
</linearGradient>
<linearGradient id="linear4" gradientUnits="userSpaceOnUse" x1="0" y1="0" x2="1" y2="0" gradientTransform="matrix(0.953926,0,0,3.218548,23.237687,24.071236)">
<stop offset="0" style="stop-color:rgb(90.980392%,43.529412%,32.54902%);stop-opacity:1;"/>
<stop offset="1" style="stop-color:rgb(83.921569%,17.254902%,45.882353%);stop-opacity:1;"/>
</linearGradient>
<linearGradient id="linear5" gradientUnits="userSpaceOnUse" x1="0" y1="0" x2="1" y2="0" gradientTransform="matrix(4.390894,0,0,3.56828,24.034451,23.191399)">
<stop offset="0" style="stop-color:rgb(90.980392%,43.529412%,32.54902%);stop-opacity:1;"/>
<stop offset="1" style="stop-color:rgb(83.921569%,17.254902%,45.882353%);stop-opacity:1;"/>
</linearGradient>
<linearGradient id="linear6" gradientUnits="userSpaceOnUse" x1="0" y1="0" x2="1" y2="0" gradientTransform="matrix(1.293641,0,0,1.206452,27.813004,23.509946)">
<stop offset="0" style="stop-color:rgb(90.980392%,43.529412%,32.54902%);stop-opacity:1;"/>
<stop offset="1" style="stop-color:rgb(83.921569%,17.254902%,45.882353%);stop-opacity:1;"/>
</linearGradient>
</defs>
<g id="surface1">
<path style=" stroke:none;fill-rule:nonzero;fill:url(#linear0);" d="M 42.394531 30.382812 L 48.851562 30.3125 L 49.023438 30.3125 C 48.515625 31.640625 48.457031 32.101562 46.390625 35.410156 C 45.683594 36.550781 44.976562 37.695312 42.300781 39.519531 C 39.324219 41.550781 35.386719 42.683594 30.542969 42.183594 C 20.265625 41.117188 14.988281 35.46875 14.988281 24.992188 C 14.988281 14.515625 21.578125 7.695312 31.992188 7.695312 C 38.957031 7.695312 46.773438 11.839844 47.746094 19.964844 L 56.320312 19.878906 C 54.152344 5.421875 42.105469 0 30.625 0 C 27.226562 0 23.882812 0.695312 21.054688 1.652344 C 21.003906 1.671875 20.957031 1.6875 20.917969 1.703125 C 19.890625 2.058594 18.777344 2.605469 17.839844 3.082031 C 13.496094 4.945312 9.003906 9.316406 7.203125 14.574219 C 6.953125 15.296875 6.792969 16.046875 6.714844 16.8125 L 6.640625 17.578125 C 6.546875 18.195312 6.429688 18.683594 6.230469 19.808594 C 5.964844 21.289062 5.566406 22.144531 5.421875 22.441406 C 4.832031 23.640625 4.210938 24.265625 2.515625 25.496094 C 0.960938 26.621094 0.890625 26.609375 0.171875 27.105469 C -0.351562 27.46875 0.421875 28.515625 0.953125 28.929688 C 1.609375 29.441406 2.210938 29.140625 2.773438 29.746094 C 2.859375 29.835938 3.386719 30.332031 3.230469 30.859375 C 2.742188 32.503906 2.34375 32.292969 1.847656 32.703125 C 1.789062 32.75 0.867188 33.289062 1.140625 34.125 C 1.203125 34.308594 1.882812 34.46875 2.21875 34.558594 C 2.703125 34.691406 3.074219 34.824219 2.722656 35.089844 C 2.058594 35.59375 1.414062 35.347656 1.332031 35.8125 C 1.289062 36.0625 1.472656 36.625 2.027344 37.082031 C 2.386719 37.378906 2.824219 38.011719 2.902344 38.875 C 2.964844 39.523438 2.613281 39.675781 2.511719 40.398438 C 2.425781 41.050781 2.652344 41.730469 2.96875 42.160156 C 4.042969 43.625 6.835938 43.066406 7.972656 43.011719 C 8.851562 42.96875 9.460938 43.003906 10.195312 42.945312 C 12.414062 42.78125 13.066406 43.570312 13.769531 44.113281 C 13.917969 44.234375 14.0625 44.355469 14.214844 44.472656 C 14.21875 44.476562 14.222656 44.480469 14.226562 44.480469 C 14.234375 44.488281 14.246094 44.5 14.257812 44.503906 C 18.382812 47.75 22.976562 49.675781 30.625 49.914062 C 32.734375 49.980469 34.851562 50 36.9375 49.601562 C 43.570312 48.34375 49.667969 44.457031 53.085938 38.527344 C 55.417969 34.480469 56.199219 30.117188 56.296875 25.492188 C 56.296875 25.449219 56.234375 25.160156 56.320312 25.160156 L 44.1875 25 C 44.1875 25 42.394531 30.382812 42.394531 30.382812 Z M 42.394531 30.382812 "/>
<path style=" stroke:none;fill-rule:nonzero;fill:url(#linear1);" d="M 37.003906 19.582031 C 39.355469 19.929688 41.023438 21.773438 41.203125 24.15625 C 41.578125 29.007812 36.863281 33.511719 33.0625 35.773438 C 32.910156 35.867188 32.746094 35.96875 32.582031 36.03125 C 34.320312 34.660156 35.785156 32.945312 36.933594 31.046875 C 38.050781 29.207031 39.410156 26.226562 38.804688 24.050781 C 37.925781 20.902344 33.257812 22.078125 31.230469 23.296875 L 30.550781 23.71875 C 30.523438 23.570312 30.421875 23.410156 30.339844 23.277344 C 29.453125 21.816406 27.726562 20.695312 26.183594 20.042969 L 24.90625 19.554688 C 26.855469 19.566406 28.839844 19.933594 30.5625 20.867188 C 31.644531 20.355469 32.769531 19.921875 33.945312 19.675781 C 33.964844 19.65625 33.988281 19.660156 33.957031 19.636719 C 32.929688 18.824219 32.753906 17.335938 33.558594 16.292969 C 34.648438 14.867188 36.894531 15.160156 37.613281 16.800781 C 38.042969 17.78125 37.769531 18.867188 37.003906 19.582031 Z M 37.003906 19.582031 "/>
<path style=" stroke:none;fill-rule:nonzero;fill:url(#linear2);" d="M 27.4375 28.503906 L 27.023438 27.871094 C 26.691406 27.261719 26.449219 26.632812 26.523438 25.921875 C 26.550781 25.625 26.78125 25.082031 27.117188 25.039062 C 27.484375 24.992188 27.449219 25.488281 27.5 25.714844 C 27.792969 27.023438 29.902344 28.660156 30.859375 29.582031 C 32.320312 30.992188 32.679688 32.703125 32.082031 34.648438 C 31.839844 35.429688 31.441406 36.234375 30.941406 36.871094 C 30.8125 35.335938 30.011719 34.300781 28.910156 33.332031 C 28.074219 32.597656 27.160156 31.941406 26.3125 31.21875 C 23.742188 29.039062 20.078125 25.59375 21.136719 21.820312 C 21.1875 21.632812 21.472656 20.804688 21.597656 20.714844 C 21.714844 20.625 21.972656 20.648438 22.019531 20.816406 C 22.050781 20.917969 21.910156 21.484375 21.898438 21.664062 C 21.695312 24.964844 24.785156 27.257812 27.4375 28.503906 Z M 27.4375 28.503906 "/>
<path style=" stroke:none;fill-rule:nonzero;fill:url(#linear3);" d="M 23.707031 25.820312 C 23.332031 25.382812 22.976562 24.867188 22.703125 24.355469 C 22.566406 24.109375 22.199219 23.367188 22.179688 23.117188 C 22.164062 22.898438 22.371094 22.339844 22.480469 22.136719 C 22.589844 21.929688 23.113281 21.140625 23.359375 21.570312 C 23.445312 21.722656 23.25 22.054688 23.195312 22.238281 C 22.847656 23.441406 23.265625 24.703125 23.707031 25.820312 Z M 23.707031 25.820312 "/>
<path style=" stroke:none;fill-rule:nonzero;fill:url(#linear4);" d="M 23.875 25.679688 C 23.824219 25.648438 23.792969 25.546875 23.773438 25.492188 C 23.515625 24.875 23.214844 23.835938 23.238281 23.175781 C 23.246094 23.011719 23.796875 22.453125 23.96875 22.460938 C 24.023438 22.464844 24.128906 22.542969 24.152344 22.585938 C 24.253906 22.761719 24.121094 22.867188 24.066406 23.003906 C 23.6875 23.902344 23.703125 24.730469 23.875 25.679688 Z M 23.875 25.679688 "/>
<path style=" stroke:none;fill-rule:nonzero;fill:url(#linear5);" d="M 25.28125 23.414062 L 25.710938 22.453125 C 25.820312 22.351562 25.871094 22.457031 25.898438 22.566406 C 25.980469 22.917969 25.992188 23.359375 26.046875 23.71875 C 26.175781 23.617188 26.382812 22.984375 26.53125 22.964844 C 26.566406 22.960938 26.597656 22.960938 26.617188 22.992188 L 26.878906 24.417969 L 27.789062 21.425781 C 27.835938 21.398438 27.902344 21.398438 27.9375 21.445312 C 27.984375 21.597656 28.441406 22.410156 28.425781 22.492188 C 28.410156 22.574219 28.320312 22.609375 28.257812 22.546875 L 27.851562 21.761719 L 26.878906 24.96875 C 26.835938 24.992188 26.761719 24.949219 26.746094 24.90625 L 26.488281 23.359375 L 26.085938 24.082031 C 26.035156 24.167969 25.945312 24.15625 25.914062 24.066406 C 25.816406 23.796875 25.847656 23.304688 25.765625 23.007812 L 25.726562 22.910156 C 25.695312 22.894531 25.480469 23.507812 25.433594 23.5625 C 25.421875 23.582031 25.402344 23.59375 25.382812 23.597656 C 24.992188 23.589844 24.519531 23.652344 24.144531 23.609375 C 23.960938 23.585938 24.058594 23.414062 24.085938 23.414062 Z M 25.28125 23.414062 "/>
<path style=" stroke:none;fill-rule:nonzero;fill:url(#linear6);" d="M 28.066406 22.917969 C 28.304688 22.867188 28.429688 23.078125 28.453125 23.078125 C 28.460938 23.078125 28.59375 22.945312 28.65625 22.925781 C 28.921875 22.84375 29.113281 23.0625 29.105469 23.316406 C 29.097656 23.589844 28.613281 23.902344 28.453125 24.113281 C 28.265625 23.875 27.8125 23.617188 27.8125 23.289062 C 27.8125 23.132812 27.910156 22.949219 28.066406 22.917969 Z M 28.066406 22.917969 "/>
</g>
</svg>
